HIERARCHY
ROOT Hips
{
	OFFSET 0.00000 0.00000 0.00000
	CHANNELS 6 Xposition Yposition Zposition Zrotation Yrotation Xrotation 
	JOINT LHipJoint
	{
		OFFSET 0 0 0
		CHANNELS 3 Zrotation Yrotation Xrotation
		JOINT LeftUpLeg
		{
			OFFSET 1.74857 -1.85566 0.69197
			CHANNELS 3 Zrotation Yrotation Xrotation
			JOINT LeftLeg
			{
				OFFSET 2.40003 -6.59403 0.00000
				CHANNELS 3 Zrotation Yrotation Xrotation
				JOINT LeftFoot
				{
					OFFSET 2.82169 -7.75254 0.00000
					CHANNELS 3 Zrotation Yrotation Xrotation
					JOINT LeftToeBase
					{
						OFFSET 0.16466 -0.45240 2.26890
						CHANNELS 3 Zrotation Yrotation Xrotation
						End Site
						{
							OFFSET 0.00000 -0.00000 1.16486
						}
					}
				}
			}
		}
	}
	JOINT RHipJoint
	{
		OFFSET 0 0 0
		CHANNELS 3 Zrotation Yrotation Xrotation
		JOINT RightUpLeg
		{
			OFFSET -1.64169 -1.85566 0.69197
			CHANNELS 3 Zrotation Yrotation Xrotation
			JOINT RightLeg
			{
				OFFSET -2.41814 -6.64379 0.00000
				CHANNELS 3 Zrotation Yrotation Xrotation
				JOINT RightFoot
				{
					OFFSET -2.80588 -7.70911 0.00000
					CHANNELS 3 Zrotation Yrotation Xrotation
					JOINT RightToeBase
					{
						OFFSET -0.19098 -0.52472 2.25401
						CHANNELS 3 Zrotation Yrotation Xrotation
						End Site
						{
							OFFSET -0.00000 -0.00000 1.16333
						}
					}
				}
			}
		}
	}
	JOINT LowerBack
	{
		OFFSET 0 0 0
		CHANNELS 3 Zrotation Yrotation Xrotation
		JOINT Spine
		{
			OFFSET -0.02828 2.14690 -0.11061
			CHANNELS 3 Zrotation Yrotation Xrotation
			JOINT Spine1
			{
				OFFSET -0.00167 2.15299 0.00759
				CHANNELS 3 Zrotation Yrotation Xrotation
				JOINT Neck
				{
					OFFSET 0 0 0
					CHANNELS 3 Zrotation Yrotation Xrotation
					JOINT Neck1
					{
						OFFSET -0.09296 1.90118 0.07197
						CHANNELS 3 Zrotation Yrotation Xrotation
						JOINT Head
						{
							OFFSET 0.08490 1.89526 -0.24604
							CHANNELS 3 Zrotation Yrotation Xrotation
							End Site
							{
								OFFSET 0.03186 1.92109 -0.09483
							}
						}
					}
				}
				JOINT LeftShoulder
				{
					OFFSET 0 0 0
					CHANNELS 3 Zrotation Yrotation Xrotation
					JOINT LeftArm
					{
						OFFSET 3.21569 1.44644 -0.03720
						CHANNELS 3 Zrotation Yrotation Xrotation
						JOINT LeftForeArm
						{
							OFFSET 5.47651 -0.00000 -0.00000
							CHANNELS 3 Zrotation Yrotation Xrotation
							JOINT LeftHand
							{
								OFFSET 3.09058 -0.00000 -0.00000
								CHANNELS 3 Zrotation Yrotation Xrotation
								JOINT LeftFingerBase
								{
									OFFSET 0 0 0
									CHANNELS 3 Zrotation Yrotation Xrotation
									JOINT LeftHandIndex1
									{
										OFFSET 0.77161 -0.00000 -0.00000
										CHANNELS 3 Zrotation Yrotation Xrotation
										End Site
										{
											OFFSET 0.62209 -0.00000 -0.00000
										}
									}
								}
								JOINT LThumb
								{
									OFFSET 0 0 0
									CHANNELS 3 Zrotation Yrotation Xrotation
									End Site
									{
										OFFSET 0.63159 -0.00000 0.63159
									}
								}
							}
						}
					}
				}
				JOINT RightShoulder
				{
					OFFSET 0 0 0
					CHANNELS 3 Zrotation Yrotation Xrotation
					JOINT RightArm
					{
						OFFSET -3.38693 1.28904 -0.07093
						CHANNELS 3 Zrotation Yrotation Xrotation
						JOINT RightForeArm
						{
							OFFSET -5.14182 -0.00000 -0.00000
							CHANNELS 3 Zrotation Yrotation Xrotation
							JOINT RightHand
							{
								OFFSET -3.35565 -0.00000 -0.00000
								CHANNELS 3 Zrotation Yrotation Xrotation
								JOINT RightFingerBase
								{
									OFFSET 0 0 0
									CHANNELS 3 Zrotation Yrotation Xrotation
									JOINT RightHandIndex1
									{
										OFFSET -0.80104 -0.00000 -0.00000
										CHANNELS 3 Zrotation Yrotation Xrotation
										End Site
										{
											OFFSET -0.64582 -0.00000 -0.00000
										}
									}
								}
								JOINT RThumb
								{
									OFFSET 0 0 0
									CHANNELS 3 Zrotation Yrotation Xrotation
									End Site
									{
										OFFSET -0.65568 -0.00000 0.65568
									}
								}
							}
						}
					}
				}
			}
		}
	}
}
MOTION
Frames: 6
Frame Time: .0083333
0.6921 17.4039 -2.6790 1.3678 -9.7813 9.4926 0.0000 0.0000 0.0000 -19.5134 -8.5968 -32.1446 5.3027 13.7168 42.1147 1.2678 4.9674 -23.5888 0.5865 -4.9036 -13.6338 0.0000 0.0000 0.0000 12.4369 15.1633 -33.1914 -5.1281 -13.5266 41.3733 -0.8267 -2.5378 -18.2727 -0.2844 3.4299 -9.4779 -2.1429 3.7561 19.6603 1.1674 4.4427 11.3349 1.6263 2.0469 1.0132 -7.4065 -9.2593 4.0295 9.0363 -12.5550 -1.0805 4.2870 -6.3675 0.0869 -0.0000 0.0000 0.0000 -9.3067 -41.2471 20.9465 54.6017 -54.6908 -29.8907 -0.0000 0.0000 -20.3672 -6.7816 28.7746 -3.2762 -7.1250 0.0000 -0.0000 -38.9389 54.2711 -10.0252 -0.0000 0.0000 0.0000 51.3885 9.1849 73.9504 -77.9755 59.4465 -49.6058 0.0000 -0.0000 -39.5248 -15.9537 11.6291 -3.2980 7.1250 -0.0000 -0.0000 7.8363 -17.9646 5.0852
0.7066 17.3578 -2.6908 1.5172 -9.5807 9.2846 0.0000 0.0000 0.0000 -19.6802 -8.6165 -32.5293 5.5070 13.9329 42.9693 1.2988 4.6886 -23.6793 0.5913 -4.9230 -13.6891 0.0000 0.0000 0.0000 12.1680 15.1164 -33.6125 -5.3574 -13.7753 42.3447 -0.8640 -2.5232 -18.6433 -0.3048 3.5496 -9.8129 -2.4132 3.7014 19.7360 1.0101 4.3258 11.4635 1.6345 1.9792 1.1162 -7.3798 -9.2313 3.9809 9.5745 -12.5079 -1.1809 4.4700 -6.3520 0.0960 -0.0000 0.0000 0.0000 -10.5419 -43.5582 19.5000 53.2941 -54.2406 -28.8266 -0.0000 0.0000 -18.1669 -6.2665 28.0643 -2.9573 -7.1250 0.0000 -0.0000 -37.9039 53.7990 -9.2247 -0.0000 0.0000 0.0000 49.8732 8.4445 73.9082 -79.5838 59.5860 -50.9918 0.0000 -0.0000 -40.6002 -15.6358 11.5617 -3.2106 7.1250 -0.0000 -0.0000 8.0588 -18.0555 5.2162
0.7186 17.3149 -2.6967 1.6180 -9.3785 9.0871 0.0000 0.0000 0.0000 -19.8056 -8.5639 -32.8638 5.6999 14.1310 43.7649 1.3395 4.3341 -23.8081 0.6029 -4.9705 -13.8245 0.0000 0.0000 0.0000 11.9595 15.0741 -33.9706 -5.5792 -14.0078 43.2685 -0.9026 -2.4519 -18.9911 -0.3004 3.5239 -9.7409 -2.6408 3.6669 19.7561 0.8661 4.2442 11.5993 1.6295 1.9299 1.2557 -7.1916 -9.2046 3.8444 10.0094 -12.4550 -1.1976 4.5802 -6.3302 0.1288 -0.0000 0.0000 0.0000 -12.0308 -45.9830 18.1597 52.0890 -53.8041 -27.8514 -0.0000 0.0000 -16.0904 -5.8579 27.6617 -2.7270 -7.1250 0.0000 -0.0000 -37.2214 53.5488 -8.7743 -0.0000 0.0000 0.0000 48.3008 7.6982 73.8135 -81.1804 59.7040 -52.3696 0.0000 -0.0000 -41.7656 -15.0718 11.4967 -3.0723 7.1250 -0.0000 -0.0000 8.4538 -18.1596 5.4578
0.7307 17.2704 -2.7017 1.6161 -9.1577 8.8486 0.0000 0.0000 0.0000 -19.8157 -8.5193 -33.1191 5.8890 14.3199 44.5344 1.3880 3.9091 -23.9653 0.5759 -4.8597 -13.5088 0.0000 0.0000 0.0000 11.8814 15.0037 -34.2424 -5.7969 -14.2286 44.1611 -0.9454 -2.3582 -19.3609 -0.2764 3.3816 -9.3431 -2.7736 3.6276 19.8175 0.7876 4.1712 11.7439 1.6369 1.8869 1.3853 -7.1041 -9.1685 3.6604 10.4445 -12.3965 -1.1588 4.7051 -6.3031 0.1946 0.0000 -0.0000 0.0000 -13.9446 -48.5585 16.9698 50.7022 -53.2748 -26.7360 -0.0000 0.0000 -14.2215 -5.3928 26.9873 -2.4530 -7.1250 0.0000 -0.0000 -36.2902 53.0837 -8.0611 0.0000 -0.0000 0.0000 46.6729 6.9478 73.7353 -82.5909 59.7916 -53.5880 0.0000 -0.0000 -42.8570 -14.6550 11.5411 -2.9950 7.1250 -0.0000 -0.0000 8.7446 -18.1415 5.6534
0.7446 17.2262 -2.7089 1.6215 -8.8943 8.5548 0.0000 0.0000 0.0000 -19.8468 -8.4670 -33.3301 6.0817 14.5071 45.3089 1.4380 3.5383 -24.1667 0.6041 -4.9750 -13.8374 0.0000 0.0000 0.0000 11.8158 14.8468 -34.4461 -6.0117 -14.4397 45.0288 -0.9945 -2.2158 -19.7603 -0.2379 3.1393 -8.6668 -2.8694 3.5540 19.9937 0.7195 4.0557 11.8633 1.6356 1.8253 1.4338 -7.0534 -9.1148 3.4415 11.2088 -12.3140 -1.0827 4.4471 -6.2630 0.2703 0.0000 -0.0000 0.0000 -16.2447 -51.1724 15.9877 49.2145 -52.6737 -25.5482 -0.0000 0.0000 -12.5850 -4.9000 26.2774 -2.1736 -7.1250 0.0000 -0.0000 -35.3265 52.5869 -7.3381 0.0000 -0.0000 0.0000 45.0148 6.2611 73.7590 -83.7732 59.8530 -54.6101 0.0000 -0.0000 -43.8525 -14.4004 11.7456 -2.9920 7.1250 -0.0000 -0.0000 8.9193 -17.9500 5.8073
0.7603 17.1805 -2.7163 1.6361 -8.6576 8.3262 0.0000 0.0000 0.0000 -19.8979 -8.3514 -33.6591 6.2834 14.6975 46.1088 1.4804 3.2088 -24.3323 0.6631 -5.2079 -14.5025 0.0000 0.0000 0.0000 11.7139 14.7158 -34.7365 -6.2286 -14.6463 45.8924 -1.0379 -2.0858 -20.1030 -0.2219 3.0324 -8.3690 -2.9943 3.4533 20.1030 0.6241 3.9029 11.9544 1.6312 1.7447 1.4871 -7.0171 -9.0269 3.2905 11.6459 -12.1921 -1.0564 4.5644 -6.2031 0.3169 0.0000 -0.0000 0.0000 -18.9747 -53.5426 15.3011 47.9650 -52.1411 -24.5581 -0.0000 0.0000 -11.2681 -4.4022 25.9553 -1.9298 -7.1250 0.0000 -0.0000 -34.6498 52.4064 -7.0024 0.0000 -0.0000 0.0000 43.3577 5.7326 73.8935 -84.7904 59.8972 -55.4899 0.0000 -0.0000 -44.7749 -13.9741 11.7839 -2.9093 7.1250 -0.0000 -0.0000 9.2157 -17.9384 6.0077
